PathFileType	4	(X/Y/Z)	G:\GRF\jawan data\CompiledGRF\03. Mohit Kumar\0231~ac~Walking 09_markers.trc
DataRate	CameraRate	NumFrames	NumMarkers	Units	OrigDataRate	OrigDataStartFrame	OrigNumFrames
100.000000	100.000000	5	18	mm	100.000000	210	840
Frame#	Time	c7			r should			l should			sacrum			r asis			r bar 1			r knee 1			r bar 2			r mall			r heel			r met			l asis			l bar 1			l knee 1			l bar 2			l mall			l heel			l met			
		X1	Y1	Z1	X2	Y2	Z2	X3	Y3	Z3	X4	Y4	Z4	X5	Y5	Z5	X6	Y6	Z6	X7	Y7	Z7	X8	Y8	Z8	X9	Y9	Z9	X10	Y10	Z10	X11	Y11	Z11	X12	Y12	Z12	X13	Y13	Z13	X14	Y14	Z14	X15	Y15	Z15	X16	Y16	Z16	X17	Y17	Z17	X18	Y18	Z18	

211	2.1	-1636.1513671875	1496.387084960938	248.9632110595703	-1580.0712890625	1446.54248046875	410.7291870117188	-1593.5703125	1456.271362304688	85.35430145263672	-1783.05126953125	1049.321655273438	242.4064025878906	nan	nan	nan	-1751.874633789063	605.2664794921875	425.171875	-1756.19921875	518.4036865234375	370.4181518554688	nan	nan	nan	nan	nan	nan	nan	nan	nan	nan	nan	nan	nan	nan	nan	-1528.592163085938	608.2742309570313	44.20031356811523	-1474.544555664063	538.6348266601563	101.0135269165039	-1443.53369140625	265.6246337890625	46.33722305297852	-1389.025268554688	95.75439453125	111.4255065917969	nan	nan	nan	-1247.503051757813	99.86410522460938	143.9937133789063	
212	2.11	-1626.940185546875	1494.876098632813	248.2154541015625	-1570.891357421875	1445.117065429688	410.0934143066406	-1584.41796875	1454.486572265625	84.61551666259766	-1774.09716796875	1048.0341796875	241.9435119628906	nan	nan	nan	-1746.005737304688	604.781494140625	424.8777770996094	-1750.5439453125	517.7529296875	370.3279113769531	nan	nan	nan	nan	nan	nan	nan	nan	nan	nan	nan	nan	nan	nan	nan	-1521.24365234375	606.4558715820313	44.63965225219727	-1467.342895507813	536.921630859375	101.3771820068359	-1429.281982421875	265.2269287109375	46.84867095947266	-1371.03173828125	97.22660064697266	111.9749984741211	nan	nan	nan	-1228.871826171875	104.1054077148438	145.2245483398438	
213	2.12	-1617.80029296875	1493.453857421875	247.4090118408203	-1561.614379882813	1443.751586914063	409.3768310546875	-1575.12451171875	1452.750732421875	83.80728149414063	-1765.007690429688	1046.793701171875	241.4583282470703	nan	nan	nan	-1739.986938476563	604.3153686523438	424.5806274414063	-1744.512817382813	517.0330810546875	369.9943542480469	nan	nan	nan	nan	nan	nan	nan	nan	nan	nan	nan	nan	nan	nan	nan	-1513.97607421875	604.9078979492188	45.02089309692383	-1459.677490234375	535.2599487304688	101.7877578735352	-1415.702514648438	264.7468566894531	47.39307022094727	-1354.101806640625	97.92301177978516	112.8989562988281	-1402.536254882813	39.0391731262207	162.4460754394531	-1212.465942382813	107.933464050293	146.4938049316406	
214	2.13	-1608.621215820313	1492.104248046875	246.5201568603516	-1552.3291015625	1442.515869140625	408.5777893066406	-1565.767944335938	1451.10400390625	82.91938781738281	-1755.807250976563	1045.638671875	240.9852752685547	nan	nan	nan	-1733.615356445313	603.7893676757813	424.27099609375	-1738.645141601563	516.6054077148438	369.7879333496094	nan	nan	nan	nan	nan	nan	nan	nan	nan	nan	nan	nan	nan	nan	nan	-1505.39111328125	603.0778198242188	45.36128234863281	-1451.555053710938	533.69091796875	102.22021484375	-1402.936279296875	264.2398681640625	48.09846496582031	-1338.914184570313	98.46907806396484	114.2684631347656	-1387.126708984375	38.9666748046875	163.7736206054688	-1201.932739257813	109.6591720581055	147.0308227539063	
215	2.14	-1599.292602539063	1490.842407226563	245.5972900390625	-1543.016235351563	1441.427612304688	407.7355346679688	-1556.404296875	1449.635864257813	81.95631408691406	-1746.447387695313	1044.52490234375	240.4229736328125	nan	nan	nan	-1727.090087890625	603.4284057617188	423.9408569335938	-1732.21875	516.0734252929688	369.3861999511719	nan	nan	nan	nan	nan	nan	nan	nan	nan	nan	nan	nan	nan	nan	nan	-1496.534301757813	601.9259033203125	45.53628921508789	-1444.254516601563	532.4689331054688	102.0261001586914	-1390.929321289063	263.4517517089844	48.50536727905273	-1326.03955078125	98.73196411132813	115.2302627563477	-1373.31005859375	38.67659378051758	165.0779571533203	nan	nan	nan	
